ffmpeg version 3.4.8-0ubuntu0.2 Copyright (c) 2000-2020 the FFmpeg developers
  built with gcc 7 (Ubuntu 7.5.0-3ubuntu1~18.04)
  configuration: --prefix=/usr --extra-version=0ubuntu0.2 --toolchain=hardened --libdir=/usr/lib/x86_64-linux-gnu --incdir=/usr/include/x86_64-linux-gnu --enable-gpl --disable-stripping --enable-avresample --enable-avisynth --enable-gnutls --enable-ladspa --enable-libass --enable-libbluray --enable-libbs2b --enable-libcaca --enable-libcdio --enable-libflite --enable-libfontconfig --enable-libfreetype --enable-libfribidi --enable-libgme --enable-libgsm --enable-libmp3lame --enable-libmysofa --enable-libopenjpeg --enable-libopenmpt --enable-libopus --enable-libpulse --enable-librubberband --enable-librsvg --enable-libshine --enable-libsnappy --enable-libsoxr --enable-libspeex --enable-libssh --enable-libtheora --enable-libtwolame --enable-libvorbis --enable-libvpx --enable-libwavpack --enable-libwebp --enable-libx265 --enable-libxml2 --enable-libxvid --enable-libzmq --enable-libzvbi --enable-omx --enable-openal --enable-opengl --enable-sdl2 --enable-libdc1394 --enable-libdrm --enable-libiec61883 --enable-chromaprint --enable-frei0r --enable-libopencv --enable-libx264 --enable-shared
  libavutil      55. 78.100 / 55. 78.100
  libavcodec     57.107.100 / 57.107.100
  libavformat    57. 83.100 / 57. 83.100
  libavdevice    57. 10.100 / 57. 10.100
  libavfilter     6.107.100 /  6.107.100
  libavresample   3.  7.  0 /  3.  7.  0
  libswscale      4.  8.100 /  4.  8.100
  libswresample   2.  9.100 /  2.  9.100
  libpostproc    54.  7.100 / 54.  7.100
[mp3 @ 0x55e85a914f00] Header missing
[mpegts @ 0x55e85a8e0000] PES packet size mismatch
    Last message repeated 3 times
[mpegts @ 0x55e85a8e0000] Could not find codec parameters for stream 2 (Unknown: none ([5][0][0][0] / 0x0005)): unknown codec
Consider increasing the value for the 'analyzeduration' and 'probesize' options
[mpegts @ 0x55e85a8e0000] Could not find codec parameters for stream 3 (Unknown: none ([11][0][0][0] / 0x000B)): unknown codec
Consider increasing the value for the 'analyzeduration' and 'probesize' options
[mpegts @ 0x55e85a8e0000] Could not find codec parameters for stream 4 (Unknown: none ([11][0][0][0] / 0x000B)): unknown codec
Consider increasing the value for the 'analyzeduration' and 'probesize' options
[mpegts @ 0x55e85a8e0000] Could not find codec parameters for stream 5 (Unknown: none ([11][0][0][0] / 0x000B)): unknown codec
Consider increasing the value for the 'analyzeduration' and 'probesize' options
Input #0, mpegts, from '../.././Samples/res_change_ffmpeg_aspect.ts':
  Duration: 00:00:03.99, start: 62798.968978, bitrate: 3362 kb/s
  Program 65 
    Metadata:
      service_name    : ?Nelonen
      service_provider: ?SW Television Oy
    Stream #0:0[0x200]: Video: mpeg2video (Main) ([2][0][0][0] / 0x0002), yuv420p(tv, bt709, top first), 720x576 [SAR 16:15 DAR 4:3], 25 fps, 25 tbr, 90k tbn, 50 tbc
    Stream #0:1[0x28a](fin): Audio: mp2 ([4][0][0][0] / 0x0004), 48000 Hz, stereo, s16p, 192 kb/s
    Stream #0:2[0xdac]: Unknown: none ([5][0][0][0] / 0x0005)
    Stream #0:3[0xdad]: Unknown: none ([11][0][0][0] / 0x000B)
    Stream #0:4[0xdae]: Unknown: none ([11][0][0][0] / 0x000B)
    Stream #0:5[0xdaf]: Unknown: none ([11][0][0][0] / 0x000B)
    Stream #0:6[0x240](fin): Subtitle: dvb_teletext ([6][0][0][0] / 0x0006), 492x250
  Program 49 
    Metadata:
      service_name    : ?MTV3
      service_provider: ?MTV Oy
  Program 97 
    Metadata:
      service_name    : ?Subtv
      service_provider: ?SubTV Oy
  Program 209 
    Metadata:
      service_name    : ?MTV3+
      service_provider: ?MTV Oy
  Program 225 
    Metadata:
      service_name    : ?Nelonen Plus
      service_provider: ?SW Television Oy
  Program 3346 
    Metadata:
      service_name    : ?Ohjelmistopäivitykset
      service_provider: ?Digita Oy
Stream mapping:
  Stream #0:0 -> #0:0 (mpeg2video (native) -> h264 (libx264))
  Stream #0:1 -> #0:1 (mp2 (native) -> aac (native))
Press [q] to stop, [?] for help
[mp2 @ 0x55e85a919400] Header missing
Error while decoding stream #0:1: Invalid data found when processing input
[libx264 @ 0x55e85a91b700] using SAR=16/15
[libx264 @ 0x55e85a91b700] using cpu capabilities: MMX2 SSE2Fast SSSE3 SSE4.2 AVX FMA3 BMI2 AVX2
[libx264 @ 0x55e85a91b700] profile High, level 3.0
[libx264 @ 0x55e85a91b700] 264 - core 152 r2854 e9a5903 - H.264/MPEG-4 AVC codec - Copyleft 2003-2017 - http://www.videolan.org/x264.html - options: cabac=1 ref=3 deblock=1:0:0 analyse=0x3:0x113 me=hex subme=7 psy=1 psy_rd=1.00:0.00 mixed_ref=1 me_range=16 chroma_me=1 trellis=1 8x8dct=1 cqm=0 deadzone=21,11 fast_pskip=1 chroma_qp_offset=-2 threads=6 lookahead_threads=1 sliced_threads=0 nr=0 decimate=1 interlaced=0 bluray_compat=0 constrained_intra=0 bframes=3 b_pyramid=2 b_adapt=1 b_bias=0 direct=1 weightb=1 open_gop=0 weightp=2 keyint=250 keyint_min=25 scenecut=40 intra_refresh=0 rc_lookahead=40 rc=crf mbtree=1 crf=23.0 qcomp=0.60 qpmin=0 qpmax=69 qpstep=4 ip_ratio=1.40 aq=1:1.00
Output #0, mov, to '/home/aleksandr/Pract/Samples/res_change_ffmpeg_aspect.ts_tc/output_tc1.mov':
  Metadata:
    encoder         : Lavf57.83.100
    Stream #0:0: Video: h264 (libx264) (avc1 / 0x31637661), yuv420p, 720x576 [SAR 16:15 DAR 4:3], q=-1--1, 25 fps, 12800 tbn, 25 tbc
    Metadata:
      encoder         : Lavc57.107.100 libx264
    Side data:
      cpb: bitrate max/min/avg: 0/0/0 buffer size: 0 vbv_delay: -1
    Stream #0:1(fin): Audio: aac (LC) (mp4a / 0x6134706D), 48000 Hz, stereo, fltp, 128 kb/s
    Metadata:
      encoder         : Lavc57.107.100 aac
[mpeg2video @ 0x55e85a919900] skipped MB in I-frame at 5 7
[mpeg2video @ 0x55e85a919900] Warning MVs not available
[mpeg2video @ 0x55e85a919900] concealing 45 DC, 45 AC, 45 MV errors in I frame
[mpeg2video @ 0x55e85a919900] mb incr damaged
[mpeg2video @ 0x55e85a919900] Warning MVs not available
[mpeg2video @ 0x55e85a919900] concealing 44 DC, 44 AC, 44 MV errors in B frame
[mpeg2video @ 0x55e85a919900] ac-tex damaged at 32 15
[mpeg2video @ 0x55e85a919900] mb incr damaged
[mpeg2video @ 0x55e85a919900] Warning MVs not available
[mpeg2video @ 0x55e85a919900] concealing 88 DC, 88 AC, 88 MV errors in P frame
[mpeg2video @ 0x55e85a919900] mb incr damaged
[mpeg2video @ 0x55e85a919900] Warning MVs not available
[mpeg2video @ 0x55e85a919900] concealing 44 DC, 44 AC, 44 MV errors in B frame
[mpeg2video @ 0x55e85a919900] slice mismatch
[mpeg2video @ 0x55e85a919900] Warning MVs not available
[mpeg2video @ 0x55e85a919900] concealing 44 DC, 44 AC, 44 MV errors in P frame
[mpeg2video @ 0x55e85a919900] ac-tex damaged at 43 25
[mpeg2video @ 0x55e85a919900] Warning MVs not available
[mpeg2video @ 0x55e85a919900] concealing 44 DC, 44 AC, 44 MV errors in B frame
frame=   89 fps=0.0 q=28.0 size=       0kB time=00:00:03.17 bitrate=   0.1kbits/s dup=13 drop=0 speed= 6.2x    [mpegts @ 0x55e85a8e0000] PES packet size mismatch
frame=   97 fps=0.0 q=-1.0 Lsize=     374kB time=00:00:03.76 bitrate= 815.1kbits/s dup=13 drop=0 speed= 3.9x    
video:317kB audio:53kB subtitle:0kB other streams:0kB global headers:0kB muxing overhead: 1.156558%
[libx264 @ 0x55e85a91b700] frame I:3     Avg QP:18.04  size: 26034
[libx264 @ 0x55e85a91b700] frame P:27    Avg QP:21.45  size:  5498
[libx264 @ 0x55e85a91b700] frame B:67    Avg QP:23.75  size:  1448
[libx264 @ 0x55e85a91b700] consecutive B-frames:  4.1%  8.2%  9.3% 78.4%
[libx264 @ 0x55e85a91b700] mb I  I16..4: 20.5% 71.0%  8.5%
[libx264 @ 0x55e85a91b700] mb P  I16..4:  2.9%  6.5%  1.3%  P16..4: 26.7%  8.3%  4.7%  0.0%  0.0%    skip:49.6%
[libx264 @ 0x55e85a91b700] mb B  I16..4:  0.4%  1.1%  0.2%  B16..8: 23.1%  1.4%  0.3%  direct: 0.9%  skip:72.6%  L0:40.9% L1:54.1% BI: 5.0%
[libx264 @ 0x55e85a91b700] 8x8 transform intra:65.7% inter:85.0%
[libx264 @ 0x55e85a91b700] coded y,uvDC,uvAC intra: 59.9% 49.1% 37.2% inter: 6.4% 8.9% 1.5%
[libx264 @ 0x55e85a91b700] i16 v,h,dc,p: 39% 40% 13%  8%
[libx264 @ 0x55e85a91b700] i8 v,h,dc,ddl,ddr,vr,hd,vl,hu: 30% 24% 28%  2%  2%  3%  4%  3%  4%
[libx264 @ 0x55e85a91b700] i4 v,h,dc,ddl,ddr,vr,hd,vl,hu: 26% 40%  9%  2%  4%  5%  7%  4%  3%
[libx264 @ 0x55e85a91b700] i8c dc,h,v,p: 59% 21% 16%  4%
[libx264 @ 0x55e85a91b700] Weighted P-Frames: Y:3.7% UV:0.0%
[libx264 @ 0x55e85a91b700] ref P L0: 59.7% 14.3% 17.8%  8.2%  0.1%
[libx264 @ 0x55e85a91b700] ref B L0: 83.7% 13.8%  2.5%
[libx264 @ 0x55e85a91b700] ref B L1: 94.9%  5.1%
[libx264 @ 0x55e85a91b700] kb/s:667.12
[aac @ 0x55e85aaa2a00] Qavg: 183.927
	Command being timed: "/usr/bin/ffmpeg -i ../.././Samples/res_change_ffmpeg_aspect.ts -c:v libx264 -f mov /home/aleksandr/Pract/Samples/res_change_ffmpeg_aspect.ts_tc/output_tc1.mov"
	User time (seconds): 3.00
	System time (seconds): 0.05
	Percent of CPU this job got: 298%
	Elapsed (wall clock) time (h:mm:ss or m:ss): 0:01.02
	Average shared text size (kbytes): 0
	Average unshared data size (kbytes): 0
	Average stack size (kbytes): 0
	Average total size (kbytes): 0
	Maximum resident set size (kbytes): 159572
	Average resident set size (kbytes): 0
	Major (requiring I/O) page faults: 6
	Minor (reclaiming a frame) page faults: 27389
	Voluntary context switches: 1341
	Involuntary context switches: 447
	Swaps: 0
	File system inputs: 1256
	File system outputs: 776
	Socket messages sent: 0
	Socket messages received: 0
	Signals delivered: 0
	Page size (bytes): 4096
	Exit status: 0
